<svg width="90" height="90" viewBox="0 0 90 90" fill="none" xmlns="http://www.w3.org/2000/svg">
<path d="M17.25 14C14.2663 14 11.4048 15.1853 9.29505 17.295C7.18526 19.4048 6 22.2663 6 25.25V28.0625H84.75V25.25C84.75 22.2663 83.5647 19.4048 81.455 17.295C79.3452 15.1853 76.4837 14 73.5 14H17.25Z" fill="white"/>
<path fill-rule="evenodd" clip-rule="evenodd" d="M84.75 36.5H6V64.625C6 67.6087 7.18526 70.4702 9.29505 72.58C11.4048 74.6897 14.2663 75.875 17.25 75.875H73.5C76.4837 75.875 79.3452 74.6897 81.455 72.58C83.5647 70.4702 84.75 67.6087 84.75 64.625V36.5ZM17.25 50.5625C17.25 49.8166 17.5463 49.1012 18.0738 48.5738C18.6012 48.0463 19.3166 47.75 20.0625 47.75H42.5625C43.3084 47.75 44.0238 48.0463 44.5512 48.5738C45.0787 49.1012 45.375 49.8166 45.375 50.5625C45.375 51.3084 45.0787 52.0238 44.5512 52.5512C44.0238 53.0787 43.3084 53.375 42.5625 53.375H20.0625C19.3166 53.375 18.6012 53.0787 18.0738 52.5512C17.5463 52.0238 17.25 51.3084 17.25 50.5625ZM20.0625 59C19.3166 59 18.6012 59.2963 18.0738 59.8238C17.5463 60.3512 17.25 61.0666 17.25 61.8125C17.25 62.5584 17.5463 63.2738 18.0738 63.8012C18.6012 64.3287 19.3166 64.625 20.0625 64.625H31.3125C32.0584 64.625 32.7738 64.3287 33.3012 63.8012C33.8287 63.2738 34.125 62.5584 34.125 61.8125C34.125 61.0666 33.8287 60.3512 33.3012 59.8238C32.7738 59.2963 32.0584 59 31.3125 59H20.0625Z" fill="white"/>
</svg>
