<svg width="40" height="40" viewBox="0 0 40 40" fill="none" xmlns="http://www.w3.org/2000/svg">
<rect width="40" height="40" rx="8" fill="white"/>
<path d="M32 25.5433C31.3454 27.0008 31.0299 27.6523 30.188 28.9387C29.0092 30.7362 27.3465 32.9808 25.2926 32.995C23.4639 33.0117 22.9919 31.799 20.5087 31.8204C18.0278 31.8323 17.5107 33.0188 15.6797 32.9998C13.6234 32.9808 12.0509 30.9597 10.8721 29.1645C7.57529 24.131 7.22664 18.2295 9.264 15.091C10.7061 12.8654 12.9853 11.5577 15.1271 11.5577C17.3091 11.5577 18.68 12.7584 20.4826 12.7584C22.233 12.7584 23.2979 11.5553 25.8215 11.5553C27.7284 11.5553 29.7444 12.5967 31.1865 14.3943C26.4714 16.986 27.2374 23.7363 32 25.5433ZM23.9051 9.54616C24.823 8.36444 25.5203 6.69768 25.2665 5C23.7699 5.10224 22.0195 6.06045 20.9973 7.30161C20.0699 8.4334 19.3014 10.1121 19.6003 11.736C21.2344 11.7883 22.9255 10.8111 23.9051 9.54616Z" fill="black"/>
</svg>
