<svg width="40" height="40" viewBox="0 0 40 40" fill="none" xmlns="http://www.w3.org/2000/svg">
<g clip-path="url(#clip0_294_8210)">
<path d="M40 34.4444C40 37.5133 37.5133 40 34.4444 40H5.55556C2.48778 40 0 37.5133 0 34.4444V5.55556C0 2.48667 2.48778 0 5.55556 0H34.4444C37.5133 0 40 2.48667 40 5.55556V34.4444Z" fill="#3F51B5"/>
<path d="M31.5198 21.1107H27.7776V35.5551H22.222V21.1107H18.8887V16.6662H22.222V13.9885C22.2242 10.0907 23.8431 7.77734 28.4353 7.77734H32.222V12.2218H29.6809C27.8931 12.2218 27.7776 12.8885 27.7776 14.1362V16.6662H32.222L31.5198 21.1107Z" fill="white"/>
</g>
<defs>
<clipPath id="clip0_294_8210">
<rect width="40" height="40" fill="white"/>
</clipPath>
</defs>
</svg>
