<svg width="40" height="40" viewBox="0 0 40 40" fill="none" xmlns="http://www.w3.org/2000/svg">
<rect width="40" height="40" rx="8" fill="white"/>
<path d="M32.1627 17.4102H31.18V17.3596H20.2V22.2396H27.0948C26.0889 25.0804 23.386 27.1196 20.2 27.1196C16.1575 27.1196 12.88 23.8421 12.88 19.7996C12.88 15.7571 16.1575 12.4796 20.2 12.4796C22.066 12.4796 23.7636 13.1835 25.0562 14.3334L28.507 10.8826C26.3281 8.85194 23.4135 7.59961 20.2 7.59961C13.4626 7.59961 8 13.0622 8 19.7996C8 26.5371 13.4626 31.9996 20.2 31.9996C26.9375 31.9996 32.4 26.5371 32.4 19.7996C32.4 18.9816 32.3158 18.1831 32.1627 17.4102Z" fill="#FFC107"/>
<path d="M9.59961 14.2169L13.5449 17.1996C14.6124 14.475 17.1978 12.5513 20.2232 12.5513C22.0599 12.5513 23.7308 13.2655 25.0031 14.4323L28.3996 10.9308C26.2549 8.87033 23.3862 7.59961 20.2232 7.59961C15.6109 7.59961 11.611 10.284 9.59961 14.2169Z" fill="#FF3D00"/>
<path d="M20.3235 32C23.4349 32 26.2621 30.7602 28.3996 28.744L24.6714 25.4592C23.462 26.413 21.9587 26.9831 20.3235 26.9831C17.1903 26.9831 14.53 24.9029 13.5278 22L9.59961 25.1513C11.5932 29.2131 15.6418 32 20.3235 32Z" fill="#4CAF50"/>
<path d="M32.167 17.2513H31.2004V17.2002H20.4004V22.129H27.1822C26.707 23.5072 25.8436 24.6956 24.73 25.5612L24.7318 25.56L28.4458 28.7871C28.183 29.0323 32.4004 25.8255 32.4004 19.6646C32.4004 18.8384 32.3176 18.0319 32.167 17.2513Z" fill="#1976D2"/>
</svg>
